<svg xmlns="http://www.w3.org/2000/svg" xmlns:xlink="http://www.w3.org/1999/xlink" contentStyleType="text/css" data-diagram-type="DESCRIPTION" height="596px" preserveAspectRatio="none" style="width:2051px;height:596px;background:#FFFFFF;" version="1.1" viewBox="0 0 2051 596" width="2051px" zoomAndPan="magnify"><title>KOYASH &#8212; Component Diagram (static view, MVP v3)</title><defs/><g><g class="title" data-source-line="1"><text fill="#000000" font-family="sans-serif" font-size="14" font-weight="bold" lengthAdjust="spacing" textLength="361.3955" x="836.3022" y="24.5332">KOYASH &#8212; Component Diagram (static view, MVP v3)</text></g><!--cluster fe--><g class="cluster" data-entity="fe" data-source-line="10" data-uid="ent0003" id="cluster_fe"><path d="M590.5,42.6094 L804.665,42.6094 A3.75,3.75 0 0 1 807.165,45.1094 L814.165,83.8281 L1129.5,83.8281 A2.5,2.5 0 0 1 1132,86.3281 L1132,298.1094 A2.5,2.5 0 0 1 1129.5,300.6094 L590.5,300.6094 A2.5,2.5 0 0 1 588,298.1094 L588,45.1094 A2.5,2.5 0 0 1 590.5,42.6094" fill="none" style="stroke:#000000;stroke-width:1.5;"/><line style="stroke:#000000;stroke-width:1.5;" x1="588" x2="814.165" y1="83.8281" y2="83.8281"/><text fill="#000000" font-family="sans-serif" font-size="14" font-weight="bold" lengthAdjust="spacing" textLength="195.3096" x="600.9277" y="59.1426">Frontend &#8212; React + Vite SPA</text><text fill="#000000" font-family="sans-serif" font-size="14" font-weight="bold" lengthAdjust="spacing" textLength="213.165" x="592" y="76.752">(static build, served on Railway)</text></g><!--cluster be--><g class="cluster" data-entity="be" data-source-line="17" data-uid="ent0008" id="cluster_be"><path d="M16.5,336.6094 L202.3574,336.6094 A3.75,3.75 0 0 1 204.8574,339.1094 L211.8574,377.8281 L1778.5,377.8281 A2.5,2.5 0 0 1 1781,380.3281 L1781,578.1094 A2.5,2.5 0 0 1 1778.5,580.6094 L16.5,580.6094 A2.5,2.5 0 0 1 14,578.1094 L14,339.1094 A2.5,2.5 0 0 1 16.5,336.6094" fill="none" style="stroke:#000000;stroke-width:1.5;"/><line style="stroke:#000000;stroke-width:1.5;" x1="14" x2="211.8574" y1="377.8281" y2="377.8281"/><text fill="#000000" font-family="sans-serif" font-size="14" font-weight="bold" lengthAdjust="spacing" textLength="184.8574" x="18" y="353.1426">Backend &#8212; FastAPI service</text><text fill="#000000" font-family="sans-serif" font-size="14" font-weight="bold" lengthAdjust="spacing" textLength="142.3584" x="39.2495" y="370.752">(Uvicorn, on Railway)</text></g><!--entity user--><g class="entity" data-entity="user" data-source-line="8" data-uid="ent0002" id="entity_user"><ellipse cx="268.0586" cy="160.6094" fill="#F1F1F1" rx="8" ry="8" style="stroke:#181818;stroke-width:0.5;"/><path d="M268.0586,168.6094 L268.0586,195.6094 M255.0586,176.6094 L281.0586,176.6094 M268.0586,195.6094 L255.0586,210.6094 M268.0586,195.6094 L281.0586,210.6094" fill="none" style="stroke:#181818;stroke-width:0.5;"/><text fill="#000000" font-family="sans-serif" font-size="14" lengthAdjust="spacing" textLength="56.0342" x="240.0415" y="226.6426">End user</text><text fill="#000000" font-family="sans-serif" font-size="14" lengthAdjust="spacing" textLength="59.1172" x="238.5" y="244.252">(browser)</text></g><!--entity mongo--><g class="entity" data-entity="mongo" data-source-line="30" data-uid="ent0019" id="entity_mongo"><path d="M1631,256.6094 C1631,246.6094 1695.4619,246.6094 1695.4619,246.6094 C1695.4619,246.6094 1759.9238,246.6094 1759.9238,256.6094 L1759.9238,318.4375 C1759.9238,328.4375 1695.4619,328.4375 1695.4619,328.4375 C1695.4619,328.4375 1631,328.4375 1631,318.4375 L1631,256.6094" fill="#F1F1F1" style="stroke:#181818;stroke-width:0.5;"/><path d="M1631,256.6094 C1631,266.6094 1695.4619,266.6094 1695.4619,266.6094 C1695.4619,266.6094 1759.9238,266.6094 1759.9238,256.6094" fill="none" style="stroke:#181818;stroke-width:0.5;"/><text fill="#000000" font-family="sans-serif" font-size="14" lengthAdjust="spacing" textLength="97.2686" x="1646.8276" y="285.1426">MongoDB Atlas</text><text fill="#000000" font-family="sans-serif" font-size="14" lengthAdjust="spacing" textLength="108.9238" x="1641" y="302.752">products &#183; users &#183;</text><text fill="#000000" font-family="sans-serif" font-size="14" lengthAdjust="spacing" textLength="82.4619" x="1654.231" y="320.3613">care &#183; tracker</text></g><!--entity llmapi--><g class="entity" data-entity="llmapi" data-source-line="31" data-uid="ent0020" id="entity_llmapi"><path d="M1901.1119,439.3621 C1903.7729,434.0141 1908.0238,433.1413 1912.2121,437.6405 C1914.7007,432.4503 1919.5627,430.4631 1923.7603,435.7584 C1926.9439,430.2975 1931.0485,430.5277 1934.9172,434.9881 C1938.4195,429.2829 1944.2346,429.2712 1947.4211,435.324 C1948.8433,429.5337 1953.8656,428.3307 1958.0221,432.3774 C1961.4373,426.6994 1965.9554,427.0902 1969.3994,432.3475 C1972.6256,427.4488 1977.6886,427.0991 1980.1611,433.0922 C1983.8991,429.4042 1988.5289,430.0491 1990.6579,435.0386 C1994.0103,428.0762 1999.8033,428.5591 2003.4704,434.7318 C2008.001,431.4392 2011.9105,430.9987 2013.8508,437.4823 C2016.9333,432.745 2020.8057,432.5049 2024.1728,437.1698 C2029.0103,432.7182 2033.0193,433.2942 2035.5709,439.5933 C2040.1491,442.2011 2040.5015,446.1363 2036.1357,449.2663 C2043.794,452.3277 2042.8706,457.0608 2038.1888,462.0969 C2043.5233,465.6061 2044.2652,470.1013 2038.25,473.6706 C2042.5885,477.0171 2044.0291,480.5474 2038.4442,484.0791 C2043.3031,488.1968 2042.9729,492.0769 2037.8042,495.6394 C2043.0145,500.1502 2041.3066,503.6439 2036.3271,506.807 C2033.5185,512.1721 2028.811,513.283 2024.8482,508.0581 C2021.6096,514.3879 2016.7231,513.1642 2013.1307,508.4329 C2010.8621,513.0113 2006.7488,514.1004 2003.5024,509.4536 C2000.2632,515.2458 1993.8351,516.112 1990.5774,509.4729 C1987.9283,515.2776 1982.7333,515.0931 1979.0946,510.5737 C1977.4482,516.3824 1973.1048,517.1017 1969.303,512.6259 C1966.5109,517.2479 1961.1681,517.76 1958.5381,512.4503 C1953.8843,516.6209 1950.3731,516.5673 1947.4523,510.5623 C1944.1496,516.4189 1938.2405,515.9754 1935.4501,510.0408 C1931.4073,515.0882 1927.5377,514.1906 1924.1876,509.2591 C1919.5379,513.5628 1915.5719,511.9511 1913.262,506.6089 C1909.937,511.5697 1905.6065,512.835 1901.8742,507.0401 C1895.8814,504.6775 1895.1036,498.8164 1900.6148,495.2273 C1893.8822,493.2345 1892.6417,488.3644 1896.5796,482.8834 C1890.0074,480.7033 1889.916,476.8084 1893.8515,471.9955 C1890.0043,466.7584 1891.2658,462.9506 1897.4023,460.9122 C1892.5934,456.6807 1893.1122,452.9707 1899.2469,450.7196 C1894.3155,446.2146 1894.827,442.0253 1901.1119,439.3621" fill="#F1F1F1" style="stroke:#181818;stroke-width:0.5;"/><text fill="#000000" font-family="sans-serif" font-size="14" lengthAdjust="spacing" textLength="81.7031" x="1927.0688" y="459.6426">LLM provider</text><text fill="#000000" font-family="sans-serif" font-size="14" lengthAdjust="spacing" textLength="119.8408" x="1908" y="477.252">OpenAI-compatible</text><text fill="#000000" font-family="sans-serif" font-size="14" lengthAdjust="spacing" textLength="70.0273" x="1932.9067" y="494.8613">gpt-4o-mini</text></g><!--entity seed--><g class="entity" data-entity="seed" data-source-line="32" data-uid="ent0021" id="entity_seed"><rect fill="#F1F1F1" height="55.2188" rx="2.5" ry="2.5" style="stroke:#181818;stroke-width:0.5;" width="132.0479" x="1344.5" y="260.1094"/><text fill="#000000" font-family="sans-serif" font-size="14" lengthAdjust="spacing" textLength="108.1582" x="1356.4448" y="284.6426">Data seed scripts</text><text fill="#000000" font-family="sans-serif" font-size="14" lengthAdjust="spacing" textLength="112.0479" x="1354.5" y="302.252">db/ &#183; offline import</text></g><!--entity landing--><g class="entity" data-entity="landing" data-source-line="11" data-uid="ent0004" id="entity_landing"><rect fill="#F1F1F1" height="37.6094" rx="2.5" ry="2.5" style="stroke:#181818;stroke-width:0.5;" width="104.8613" x="615" y="180.6094"/><text fill="#000000" font-family="sans-serif" font-size="14" lengthAdjust="spacing" textLength="84.8613" x="625" y="205.1426">Landing page</text></g><!--entity quiz--><g class="entity" data-entity="quiz" data-source-line="12" data-uid="ent0005" id="entity_quiz"><rect fill="#F1F1F1" height="72.8281" rx="2.5" ry="2.5" style="stroke:#181818;stroke-width:0.5;" width="142.9512" x="596" y="89.1094"/><text fill="#000000" font-family="sans-serif" font-size="14" lengthAdjust="spacing" textLength="122.9512" x="606" y="113.6426">Questionnaire flows</text><text fill="#000000" font-family="sans-serif" font-size="14" lengthAdjust="spacing" textLength="117.4893" x="608.731" y="131.252">storytelling / short /</text><text fill="#000000" font-family="sans-serif" font-size="14" lengthAdjust="spacing" textLength="115.9238" x="609.5137" y="148.8613">skin-type mini-quiz</text></g><!--entity reqb--><g class="entity" data-entity="reqb" data-source-line="13" data-uid="ent0006" id="entity_reqb"><rect fill="#F1F1F1" height="55.2188" rx="2.5" ry="2.5" style="stroke:#181818;stroke-width:0.5;" width="171.7646" x="952" y="202.1094"/><text fill="#000000" font-family="sans-serif" font-size="14" lengthAdjust="spacing" textLength="98.0615" x="988.8516" y="226.6426">Request builder</text><text fill="#000000" font-family="sans-serif" font-size="14" lengthAdjust="spacing" textLength="151.7646" x="962" y="244.252">quizConfig.buildRequest</text></g><!--entity results--><g class="entity" data-entity="results" data-source-line="14" data-uid="ent0007" id="entity_results"><rect fill="#F1F1F1" height="55.2188" rx="2.5" ry="2.5" style="stroke:#181818;stroke-width:0.5;" width="102.4824" x="616.5" y="237.1094"/><text fill="#000000" font-family="sans-serif" font-size="14" lengthAdjust="spacing" textLength="78.5791" x="628.4517" y="261.6426">Results view</text><text fill="#000000" font-family="sans-serif" font-size="14" lengthAdjust="spacing" textLength="82.4824" x="626.5" y="279.252">cosmetic bag</text></g><!--entity api--><g class="entity" data-entity="api" data-source-line="18" data-uid="ent0009" id="entity_api"><rect fill="#F1F1F1" height="55.2188" rx="2.5" ry="2.5" style="stroke:#181818;stroke-width:0.5;" width="139.4102" x="22" y="430.1094"/><text fill="#000000" font-family="sans-serif" font-size="14" lengthAdjust="spacing" textLength="119.4102" x="32" y="454.6426">HTTP API + CORS</text><text fill="#000000" font-family="sans-serif" font-size="14" lengthAdjust="spacing" textLength="103.4961" x="39.957" y="472.252">main.py &#183; /health</text></g><!--entity recrouter--><g class="entity" data-entity="recrouter" data-source-line="19" data-uid="ent0010" id="entity_recrouter"><rect fill="#F1F1F1" height="55.2188" rx="2.5" ry="2.5" style="stroke:#181818;stroke-width:0.5;" width="139.8135" x="198" y="430.1094"/><text fill="#000000" font-family="sans-serif" font-size="14" lengthAdjust="spacing" textLength="114.3789" x="210.7173" y="454.6426">recommend router</text><text fill="#000000" font-family="sans-serif" font-size="14" lengthAdjust="spacing" textLength="119.8135" x="208" y="472.252">POST /recommend</text></g><!--entity prodrouter--><g class="entity" data-entity="prodrouter" data-source-line="20" data-uid="ent0011" id="entity_prodrouter"><rect fill="#F1F1F1" height="55.2188" rx="2.5" ry="2.5" style="stroke:#181818;stroke-width:0.5;" width="114.1582" x="390.5" y="383.1094"/><text fill="#000000" font-family="sans-serif" font-size="14" lengthAdjust="spacing" textLength="94.1582" x="400.5" y="407.6426">products router</text><text fill="#000000" font-family="sans-serif" font-size="14" lengthAdjust="spacing" textLength="90.2549" x="402.4517" y="425.252">GET /products</text></g><!--entity engine--><g class="entity" data-entity="engine" data-source-line="21" data-uid="ent0012" id="entity_engine"><rect fill="#F1F1F1" height="90.4375" rx="2.5" ry="2.5" style="stroke:#181818;stroke-width:0.5;" width="198.165" x="939" y="422.6094"/><text fill="#000000" font-family="sans-serif" font-size="14" lengthAdjust="spacing" textLength="155.6543" x="960.2554" y="447.1426">Recommendation engine</text><text fill="#000000" font-family="sans-serif" font-size="14" lengthAdjust="spacing" textLength="178.165" x="949" y="464.752">hard filters &#183; segment-priority</text><text fill="#000000" font-family="sans-serif" font-size="14" lengthAdjust="spacing" textLength="171.9648" x="952.1001" y="482.3613">selection &#183; skin preference &#183;</text><text fill="#000000" font-family="sans-serif" font-size="14" lengthAdjust="spacing" textLength="104.2686" x="985.9482" y="499.9707">basket assembly</text></g><!--entity just--><g class="entity" data-entity="just" data-source-line="22" data-uid="ent0013" id="entity_just"><rect fill="#F1F1F1" height="55.2188" rx="2.5" ry="2.5" style="stroke:#181818;stroke-width:0.5;" width="164.7441" x="1328" y="456.1094"/><text fill="#000000" font-family="sans-serif" font-size="14" lengthAdjust="spacing" textLength="144.7441" x="1338" y="480.6426">Rule-based justification</text><text fill="#000000" font-family="sans-serif" font-size="14" lengthAdjust="spacing" textLength="42.0273" x="1389.3584" y="498.252">builder</text></g><!--entity llm--><g class="entity" data-entity="llm" data-source-line="23" data-uid="ent0014" id="entity_llm"><rect fill="#F1F1F1" height="55.2188" rx="2.5" ry="2.5" style="stroke:#181818;stroke-width:0.5;" width="154.6133" x="1618" y="444.1094"/><text fill="#000000" font-family="sans-serif" font-size="14" lengthAdjust="spacing" textLength="134.6133" x="1628" y="468.6426">LLM justification layer</text><text fill="#000000" font-family="sans-serif" font-size="14" lengthAdjust="spacing" textLength="134.6064" x="1628.0034" y="486.252">&#171;MVP v2 &#183; ADR-001&#187;</text></g><!--entity data--><g class="entity" data-entity="data" data-source-line="24" data-uid="ent0015" id="entity_data"><rect fill="#F1F1F1" height="55.2188" rx="2.5" ry="2.5" style="stroke:#181818;stroke-width:0.5;" width="132.8203" x="1344" y="383.1094"/><text fill="#000000" font-family="sans-serif" font-size="14" lengthAdjust="spacing" textLength="77.0342" x="1371.8931" y="407.6426">Data access</text><text fill="#000000" font-family="sans-serif" font-size="14" lengthAdjust="spacing" textLength="112.8203" x="1354" y="425.252">Motor async client</text></g><!--entity cfg--><g class="entity" data-entity="cfg" data-source-line="25" data-uid="ent0016" id="entity_cfg"><rect fill="#F1F1F1" height="55.2188" rx="2.5" ry="2.5" style="stroke:#181818;stroke-width:0.5;" width="120.3857" x="1635.5" y="517.1094"/><text fill="#000000" font-family="sans-serif" font-size="14" lengthAdjust="spacing" textLength="100.3857" x="1645.5" y="541.6426">Config / settings</text><text fill="#000000" font-family="sans-serif" font-size="14" lengthAdjust="spacing" textLength="87.1582" x="1652.1138" y="559.252">env &#183; pydantic</text></g><!--entity acct--><g class="entity" data-entity="acct" data-source-line="26" data-uid="ent0017" id="entity_acct"><rect fill="#F1F1F1" height="108.0469" rx="2.5" ry="2.5" style="stroke:#181818;stroke-width:0.5;" width="220.7783" x="557" y="444.6094"/><text fill="#000000" font-family="sans-serif" font-size="14" lengthAdjust="spacing" textLength="84.041" x="625.3687" y="469.1426">Accounts API</text><text fill="#000000" font-family="sans-serif" font-size="14" lengthAdjust="spacing" textLength="155.6201" x="589.5791" y="486.752">/auth &#183; /account &#183; /tracker</text><text fill="#000000" font-family="sans-serif" font-size="14" lengthAdjust="spacing" textLength="147.8271" x="593.4756" y="504.3613">register &#183; login &#183; profile &#183;</text><text fill="#000000" font-family="sans-serif" font-size="14" lengthAdjust="spacing" textLength="200.7783" x="567" y="521.9707">saved bag &#183; feedback &#183; replace &#183;</text><text fill="#000000" font-family="sans-serif" font-size="14" lengthAdjust="spacing" textLength="141.5859" x="596.5962" y="539.5801">result tracker &#183; security</text></g><!--entity sec--><g class="entity" data-entity="sec" data-source-line="27" data-uid="ent0018" id="entity_sec"><rect fill="#F1F1F1" height="72.8281" rx="2.5" ry="2.5" style="stroke:#181818;stroke-width:0.5;" width="155.3516" x="1155" y="472.1094"/><text fill="#000000" font-family="sans-serif" font-size="14" lengthAdjust="spacing" textLength="50.5723" x="1207.3896" y="496.6426">Security</text><text fill="#000000" font-family="sans-serif" font-size="14" lengthAdjust="spacing" textLength="135.3516" x="1165" y="514.252">bcrypt &#183; JWT (HS256)</text><text fill="#000000" font-family="sans-serif" font-size="14" lengthAdjust="spacing" textLength="73.1514" x="1196.1001" y="531.8613">&#171;ADR-004&#187;</text></g><g class="link" data-entity-1="user" data-entity-2="landing" data-uid="lnk22" id="link_user_landing"><polygon fill="#181818" points="614.7154,199.6094,605.7154,195.6094,609.7154,199.6094,605.7154,203.6094,614.7154,199.6094" style="stroke:#181818;stroke-width:1;"/><path d="M297.5872,199.6094 C364.0754,199.6094 523.8786,199.6094 608.7154,199.6094" fill="none" style="stroke:#181818;stroke-width:1;"/><text fill="#000000" font-family="sans-serif" font-size="13" lengthAdjust="spacing" textLength="42.6118" x="426.5" y="195.1045">HTTPS</text></g><g class="link" data-entity-1="user" data-entity-2="quiz" data-uid="lnk23" id="link_user_quiz"><polygon fill="#181818" points="595.7961,134.746,586.3347,132.0107,590.8428,135.4279,587.4256,139.936,595.7961,134.746" style="stroke:#181818;stroke-width:1;"/><path d="M297.8028,190.8098 C314.6538,185.8767 336.4038,179.8767 356,175.6094 C437.6261,157.8344 526.648,144.2646 589.8521,135.5642" fill="none" style="stroke:#181818;stroke-width:1;"/><text fill="#000000" font-family="sans-serif" font-size="13" lengthAdjust="spacing" textLength="42.6118" x="426.5" y="140.1045">HTTPS</text></g><g class="link" data-entity-1="quiz" data-entity-2="reqb" data-uid="lnk24" id="link_quiz_reqb"><polygon fill="#181818" points="951.7372,205.546,944.162,199.2519,946.9251,204.188,941.989,206.9511,951.7372,205.546" style="stroke:#181818;stroke-width:1;"/><path d="M739.1145,145.5386 C799.7201,162.643 881.4629,185.7129 945.9627,203.9164" fill="none" style="stroke:#181818;stroke-width:1;"/></g><g class="link" data-entity-1="reqb" data-entity-2="recrouter" data-uid="lnk25" id="link_reqb_recrouter"><polygon fill="#181818" points="289.6594,429.7517,298.4889,425.3882,292.8559,425.9068,292.3372,420.2738,289.6594,429.7517" style="stroke:#181818;stroke-width:1;"/><path d="M984.5676,257.1296 C933.3716,282.6221 852.5085,319.2764 778,337.6094 C595.1778,382.5932 527.552,297.0374 356,374.6094 C329.1803,386.7366 309.3476,406.0701 293.4952,425.1379" fill="none" style="stroke:#181818;stroke-width:1;"/><text fill="#000000" font-family="sans-serif" font-size="13" lengthAdjust="spacing" textLength="42.6118" x="646.2922" y="317.1045">HTTPS</text><text fill="#000000" font-family="sans-serif" font-size="13" lengthAdjust="spacing" textLength="158.1963" x="588.5" y="333.4561">POST /recommend (JSON)</text></g><g class="link" data-entity-1="recrouter" data-entity-2="results" data-uid="lnk26" id="link_recrouter_results"><polygon fill="#181818" points="616.3368,271.069,606.8731,268.3414,611.384,271.7549,607.9705,276.2658,616.3368,271.069" style="stroke:#181818;stroke-width:1;"/><path d="M280.7901,429.8524 C294.5395,400.9566 320.0589,356.6312 356,332.6094 C398.152,304.4364 533.8187,282.4966 610.3935,271.8921" fill="none" style="stroke:#181818;stroke-width:1;"/><text fill="#000000" font-family="sans-serif" font-size="13" lengthAdjust="spacing" textLength="179.1753" x="358" y="279.1045">RecommendResponse (JSON)</text></g><g class="link" data-entity-1="results" data-entity-2="user" data-uid="lnk27" id="link_results_user"><polygon fill="#181818" points="297.7589,208.6177,305.2468,215.0155,302.5518,210.0419,307.5254,207.3469,297.7589,208.6177" style="stroke:#181818;stroke-width:1;"/><path d="M616.4052,260.1408 C554.7349,254.1479 446.989,242.0752 356,223.6094 C336.3452,219.6205 320.3467,215.3295 303.5104,210.3267" fill="none" style="stroke:#181818;stroke-width:1;"/><text fill="#000000" font-family="sans-serif" font-size="13" lengthAdjust="spacing" textLength="69.3799" x="413" y="219.1045">renders bag</text></g><g class="link" data-entity-1="api" data-entity-2="recrouter" data-uid="lnk28" id="link_api_recrouter"><polygon fill="#181818" points="197.7735,457.6094,188.7735,453.6094,192.7735,457.6094,188.7735,461.6094,197.7735,457.6094" style="stroke:#181818;stroke-width:1;"/><path d="M161.2165,457.6094 C173.2337,457.6094 179.7427,457.6094 191.7735,457.6094" fill="none" style="stroke:#181818;stroke-width:1;stroke-dasharray:7,7;"/></g><g class="link" data-entity-1="api" data-entity-2="prodrouter" data-uid="lnk29" id="link_api_prodrouter"><polygon fill="#181818" points="390.2157,408.575,381.2771,404.4397,385.2163,408.4996,381.1564,412.4388,390.2157,408.575" style="stroke:#181818;stroke-width:1;"/><path d="M161.2624,431.0216 C173.3478,427.252 185.9241,423.8885 198,421.6094 C263.1384,409.3156 333.5058,407.7193 384.2164,408.4845" fill="none" style="stroke:#181818;stroke-width:1;stroke-dasharray:7,7;"/></g><g class="link" data-entity-1="api" data-entity-2="acct" data-uid="lnk30" id="link_api_acct"><polygon fill="#181818" points="556.8792,509.375,547.624,506.0071,551.8911,509.7208,548.1774,513.9879,556.8792,509.375" style="stroke:#181818;stroke-width:1;"/><path d="M161.2574,484.7503 C173.3434,488.6457 185.9211,492.1576 198,494.6094 C318.9663,519.1629 455.1575,516.4276 550.8935,509.79" fill="none" style="stroke:#181818;stroke-width:1;stroke-dasharray:7,7;"/></g><g class="link" data-entity-1="recrouter" data-entity-2="engine" data-uid="lnk31" id="link_recrouter_engine"><polygon fill="#181818" points="938.9136,440.512,930.8021,434.926,933.9988,439.5931,929.3318,442.7898,938.9136,440.512" style="stroke:#181818;stroke-width:1;"/><path d="M338.3128,451.0022 C344.2928,450.503 350.2516,450.0306 356,449.6094 C437.2369,443.6568 458.3044,450.7039 539,439.6094 C547.1188,438.4932 548.8538,436.5036 557,435.6094 C654.6357,424.8917 679.7802,434.9226 778,435.6094 C841.5602,436.0538 858.0041,429.1471 921,437.6094 C926.8756,438.3986 926.9829,438.2813 933.0158,439.4093" fill="none" style="stroke:#181818;stroke-width:1;"/></g><g class="link" data-entity-1="engine" data-entity-2="just" data-uid="lnk32" id="link_engine_just"><polygon fill="#181818" points="1327.8586,472.1505,1319.3016,467.2742,1322.8834,471.6526,1318.505,475.2344,1327.8586,472.1505" style="stroke:#181818;stroke-width:1;"/><path d="M1137.2718,465.8902 C1188.7716,465.6989 1252.8571,466.5745 1310,470.6094 C1315.8216,471.0204 1315.8532,470.9491 1321.8884,471.553" fill="none" style="stroke:#181818;stroke-width:1;"/></g><g class="link" data-entity-1="just" data-entity-2="llm" data-uid="lnk33" id="link_just_llm"><polygon fill="#181818" points="1617.6829,474.8666,1608.5215,471.2515,1612.6874,475.0785,1608.8604,479.2443,1617.6829,474.8666" style="stroke:#181818;stroke-width:1;"/><path d="M1493.3553,480.1385 C1532.5338,478.4772 1573.1846,476.7535 1611.6883,475.1208" fill="none" style="stroke:#181818;stroke-width:1;stroke-dasharray:7,7;"/><text fill="#000000" font-family="sans-serif" font-size="13" lengthAdjust="spacing" textLength="60.728" x="1525.5" y="455.1045">&#171;planned&#187;</text><text fill="#000000" font-family="sans-serif" font-size="13" lengthAdjust="spacing" textLength="59.9727" x="1525.8777" y="471.4561">enrich text</text></g><g class="link" data-entity-1="engine" data-entity-2="data" data-uid="lnk34" id="link_engine_data"><polygon fill="#181818" points="1343.7847,420.7194,1334.2811,418.1344,1338.8428,421.4797,1335.4976,426.0414,1343.7847,420.7194" style="stroke:#181818;stroke-width:1;"/><path d="M1137.3145,452.4841 C1202.5931,442.4412 1280.5676,430.4451 1337.8545,421.6318" fill="none" style="stroke:#181818;stroke-width:1;"/></g><g class="link" data-entity-1="prodrouter" data-entity-2="data" data-uid="lnk35" id="link_prodrouter_data"><polygon fill="#181818" points="1343.9466,395.5211,1335.8049,389.9792,1339.0269,394.6288,1334.3772,397.8508,1343.9466,395.5211" style="stroke:#181818;stroke-width:1;"/><path d="M504.7643,408.2795 C595.9361,404.5895 781.6257,397.429 939,393.6094 C1034.981,391.2798 1058.9931,391.2761 1155,390.6094 C1223.8872,390.131 1241.4497,383.7881 1310,390.6094 C1321.0459,391.7085 1326.7774,392.4072 1338.0429,394.4504" fill="none" style="stroke:#181818;stroke-width:1;"/></g><g class="link" data-entity-1="data" data-entity-2="mongo" data-uid="lnk36" id="link_data_mongo"><polygon fill="#181818" points="1630.7123,315.3334,1620.8637,315.2524,1626.1267,317.3264,1624.0526,322.5893,1630.7123,315.3334" style="stroke:#181818;stroke-width:1;"/><path d="M1475.0107,383.0058 C1521.4556,362.8195 1578.7,337.9394 1625.2095,317.725" fill="none" style="stroke:#181818;stroke-width:1;"/><text fill="#000000" font-family="sans-serif" font-size="13" lengthAdjust="spacing" textLength="85.2554" x="1513" y="310.1045">MongoDB wire</text><text fill="#000000" font-family="sans-serif" font-size="13" lengthAdjust="spacing" textLength="82.3608" x="1514.4473" y="326.4561">protocol (TLS)</text></g><g class="link" data-entity-1="llm" data-entity-2="llmapi" data-uid="lnk37" id="link_llm_llmapi"><polygon fill="#181818" points="1892.8164,471.6094,1883.8164,467.6094,1887.8164,471.6094,1883.8164,475.6094,1892.8164,471.6094" style="stroke:#181818;stroke-width:1;"/><path d="M1773.2909,471.6094 C1810.7776,471.6094 1849.6836,471.6094 1886.8164,471.6094" fill="none" style="stroke:#181818;stroke-width:1;"/><text fill="#000000" font-family="sans-serif" font-size="13" lengthAdjust="spacing" textLength="80.8945" x="1793" y="467.1045">HTTPS REST</text></g><g class="link" data-entity-1="recrouter" data-entity-2="cfg" data-uid="lnk38" id="link_recrouter_cfg"><polygon fill="#181818" points="1635.303,553.5625,1625.8419,550.826,1630.3496,554.2437,1626.9319,558.7514,1635.303,553.5625" style="stroke:#181818;stroke-width:1;"/><path d="M315.4988,485.1553 C328.3474,492.0918 342.4804,499.1181 356,504.6094 C564.3392,589.2318 632.6308,571.6094 857.5,571.6094 C857.5,571.6094 857.5,571.6094 1411.5,571.6094 C1489.1108,571.6094 1572.211,562.2394 1629.3589,554.38" fill="none" style="stroke:#181818;stroke-width:1;stroke-dasharray:7,7;"/></g><g class="link" data-entity-1="data" data-entity-2="cfg" data-uid="lnk39" id="link_data_cfg"><polygon fill="#181818" points="1635.4015,523.7101,1629.997,515.4765,1631.1966,521.0047,1625.6684,522.2044,1635.4015,523.7101" style="stroke:#181818;stroke-width:1;"/><path d="M1477.1287,402.1052 C1517.3211,400.6696 1567.1724,406.2047 1600,435.6094 C1624.8909,457.9048 1596.8235,482.7599 1618,508.6094 C1622.837,514.5138 1623.8195,516.2585 1630.3556,520.4637" fill="none" style="stroke:#181818;stroke-width:1;stroke-dasharray:7,7;"/></g><g class="link" data-entity-1="seed" data-entity-2="mongo" data-uid="lnk40" id="link_seed_mongo"><polygon fill="#181818" points="1630.5226,287.6094,1621.5226,283.6094,1625.5226,287.6094,1621.5226,291.6094,1630.5226,287.6094" style="stroke:#181818;stroke-width:1;"/><path d="M1476.7813,287.6094 C1522.977,287.6094 1578.6212,287.6094 1624.5226,287.6094" fill="none" style="stroke:#181818;stroke-width:1;"/><text fill="#000000" font-family="sans-serif" font-size="13" lengthAdjust="spacing" textLength="74.4199" x="1518.5" y="267.1045">offline import</text><text fill="#000000" font-family="sans-serif" font-size="13" lengthAdjust="spacing" textLength="63.5781" x="1523.9209" y="283.4561">(PyMongo)</text></g><g class="link" data-entity-1="recrouter" data-entity-2="acct" data-uid="lnk41" id="link_recrouter_acct"><polygon fill="#181818" points="556.8679,501.1823,547.894,497.124,551.868,501.1499,547.8422,505.1239,556.8679,501.1823" style="stroke:#181818;stroke-width:1;"/><path d="M338.3844,481.7592 C344.2942,483.2597 350.2205,484.5779 356,485.6094 C421.9945,497.3872 491.0713,500.7557 550.868,501.1434" fill="none" style="stroke:#181818;stroke-width:1;stroke-dasharray:7,7;"/><text fill="#000000" font-family="sans-serif" font-size="13" lengthAdjust="spacing" textLength="113.8135" x="391" y="465.1045">persist profile + bag</text><text fill="#000000" font-family="sans-serif" font-size="13" lengthAdjust="spacing" textLength="98.2681" x="398.7727" y="481.4561">(only if signed in)</text></g><g class="link" data-entity-1="acct" data-entity-2="sec" data-uid="lnk42" id="link_acct_sec"><polygon fill="#181818" points="1154.745,520.0617,1145.3807,517.0106,1149.7716,520.5771,1146.2052,524.968,1154.745,520.0617" style="stroke:#181818;stroke-width:1;"/><path d="M778.3775,511.2818 C873.3661,520.4969 1014.3207,530.0081 1137,521.6094 C1142.7827,521.2135 1142.7826,521.3013 1148.777,520.6801" fill="none" style="stroke:#181818;stroke-width:1;"/></g><g class="link" data-entity-1="acct" data-entity-2="engine" data-uid="lnk43" id="link_acct_engine"><polygon fill="#181818" points="938.8301,475.8679,929.5265,472.6364,933.8477,476.287,930.1971,480.6083,938.8301,475.8679" style="stroke:#181818;stroke-width:1;"/><path d="M778.0644,489.3923 C829.0879,485.0999 883.3307,480.5368 932.8513,476.3709" fill="none" style="stroke:#181818;stroke-width:1;stroke-dasharray:7,7;"/><text fill="#000000" font-family="sans-serif" font-size="13" lengthAdjust="spacing" textLength="62.8672" x="827.2595" y="457.1045">single-step</text><text fill="#000000" font-family="sans-serif" font-size="13" lengthAdjust="spacing" textLength="121.3862" x="798" y="473.4561">alternatives (replace)</text></g><g class="link" data-entity-1="acct" data-entity-2="data" data-uid="lnk44" id="link_acct_data"><polygon fill="#181818" points="1343.5449,402.5673,1334.9932,397.6817,1338.5703,402.064,1334.1879,405.641,1343.5449,402.5673" style="stroke:#181818;stroke-width:1;"/><path d="M776.1688,444.5684 C782.8057,442.029 789.449,439.6809 796,437.6094 C987.3607,377.0987 1223.0623,390.3773 1337.5754,401.9633" fill="none" style="stroke:#181818;stroke-width:1;"/></g><g class="link" data-entity-1="acct" data-entity-2="cfg" data-uid="lnk45" id="link_acct_cfg"><polygon fill="#181818" points="1635.276,547.9266,1626.0905,544.3732,1630.2821,548.172,1626.4833,552.3636,1635.276,547.9266" style="stroke:#181818;stroke-width:1;"/><path d="M778.2028,522.9335 C784.2083,523.9233 790.1696,524.826 796,525.6094 C1109.9091,567.7847 1484.9615,555.3143 1629.2833,548.2211" fill="none" style="stroke:#181818;stroke-width:1;stroke-dasharray:7,7;"/></g><g class="link" data-entity-1="sec" data-entity-2="cfg" data-uid="lnk46" id="link_sec_cfg"><polygon fill="#181818" points="1635.3775,541.8481,1626.5895,537.4016,1630.3838,541.5973,1626.1882,545.3915,1635.3775,541.8481" style="stroke:#181818;stroke-width:1;"/><path d="M1310.0455,518.7306 C1316.1155,519.4107 1322.156,520.0475 1328,520.6094 C1436.2199,531.0141 1556.866,537.9042 1629.3851,541.5471" fill="none" style="stroke:#181818;stroke-width:1;stroke-dasharray:7,7;"/></g><!--SRC=[PLRDSkD44BxhAHfVi2jHl2mBXv1AbJV9ihian5XcAGfp68z6yf3HZ38piX4KLJm4xyATH-59w6xzn64lZjJJtTFzVL-tyadjHLa9CA9rJOHGgIYiIAAEHi4tzpykihVmxvz_mPMhQcULZN2jHUb51TCGHTGIzbeTJk7kmnBsdy-I93neMmjoa4D85bjCvfN4rALHHovX9t9tqBQ4GfXmV9AhGZGchjMlSM5qQIkwMkAFyebHHOJemEjo5o7Nb5axcoH2HkTXScDpQ8Bo6plTUdV0fza4H61RajH2FeXImUIDTvWEVQc_bS9WE84FEYh8bWkCxVlRDjhafu2nUvM3ix0IsXn4s-Ki5FoU0FnqAsnEVTIO-cSwC9s1phvhLA02hS1IeJ1OqiO6BBMDoXYAcYCIpaUOenqXI6DRAwYqrUbZet_ZVFH0oLRgaT9rPL6FT73bRA7BCxRr3XparUEs2me8Pc2kDbOwefbQ4sNlniV97qVelCQ70Pmt8iJ5yXrZeAL2RBx7lyxRqu_msFPul5slbq0n9t1rlyesjXBQdjKj_FCtp7TAcBZZgqMjoHqfT5L5ztcK8RMrlC_MC1_jVPsoEwQGshkyaTZK4F7r3GOCLlQdbwU0rP1B41cWRAajzh8JFeT26_GAL5rG9OajhRrsNiSMAL6cKnWV8p-OM1NAAoiLcZPsAyA3YdXZKDNMj7ntbvxlROnAqGNLyqk3GYYqv0emhkEG_Uc8XNHxzzoDHfFQkxZW6Nj9HIokL-cB5vzTNdPICnL5NeieG4Yf0ihhpj4eYD1Q2T9eR8XTiNT1lfrWI7SgHbGWHYYxfzHrcmkBuc1tMR205rAwnYBKIEZ6paKJTyoZwEpy73q91klqgjG1mIIhSGW2P_KE8UxG2e862RL71uLI-HOZwTchseWUqawIq6VjU94DyT79Haf6A-kDYANqRSsblFzX3TEtsSillfmHQXrMhtgiC0l9d70WIc1ovspfhb_38Xg1A8ogmaIqBm9N8uMdiePoMEaL1IRIk2Q72R66eNlD8tbVAxjubz82H0gt1bLMrZ5zvLAQwKdF6Kb_t94mOVe2mW51Ubr7B2RVpkbMLnIu9HHezFLnqhMXyYIX0Y5DBuTb0-T0SvSz7T1o6AtyGbPU2_JJl_LJDJX-D7mmVP_TVpjBdZoxk6wfdCCuMRXdi1s4TGpeNCYTQph7A9iJhCW_BknQmzdPKGcZvMXq1nDp_ho4ViYwFspXCQ8V3a6KySgB2zILjIg_l2IPUort4F73SXp7W_5qwPEDVlYD-SPiWs0EkCnPBz59Ps2wlirc2Lt8X32z0w2mkidMHwLJQJHQd7juOUgFBtfEEoxTPSjtuqVsKnX7ahS3J7kLpywXfEsV5jeZ1hIyZsWyEFyGiF2ues-zm6yehlYlC1iA3x-nAaznMdt_WH5vhcd_26DQg94odEe0SQV6OJw1SPJF_jSTSOKjz6574UYBdJYBENNHtmhQpXAEeFPfGlc5ylGCdQCd_UkGucAfDrWItcDnjFOgmBHV6qSfcBWnHmUk79__0m00]--></g></svg>